# xmcd
#
# Track frame offsets:
#	150
#	15200
#	36917
#	60725
#	84720
#	104340
#	129445
#	139315
#	162142
#	179622
#	200015
#	217000
#	240722
#	257765
#	280677
#	302052
#
# Disc length: 4428 seconds
#
# Revision: 0
# Processed by: cddbd v1.5.2PL0 Copyright (c) Steve Scherf et al.
# Submitted via: audiograbber 1.83.01
#
DISCID=e6114a10
DTITLE=Stevie Nicks - Enchanted [CD 3)
DYEAR=1998
DGENRE=Rock
TTITLE0=Stevie Nicks - Twisted [demo]
TTITLE1=Buckingham Nicks - Long Distance Winner
TTITLE2=Stevie Nicks - Thousand Days
TTITLE3=Stevie Nicks - Battle Of The Dragon
TTITLE4=John Stewart and Stevie Nicks - Gold
TTITLE5=Stevie Nicks - Free Fallin'
TTITLE6=Stevie Nicks - It's Late [demo]
TTITLE7=Stevie Nicks - Violet And Blue
TTITLE8=Kenny Loggins and Stevie Nicks - Whenever I Call You Friend
TTITLE9=Stevie Nicks - Sweet Girl [demo]
TTITLE10=Stevie Nicks - Blue Lamp
TTITLE11=Stevie Nicks - Gold And Braid [live version]
TTITLE12=Stevie Nicks - Reconsider Me
TTITLE13=Stevie Nicks - Somebody Stand By Me
TTITLE14=Stevie Nicks - Sleeping Angel
TTITLE15=Stevie Nicks - Rhiannon [piano version]
EXTD=
EXTT0=
EXTT1=
EXTT2=
EXTT3=
EXTT4=
EXTT5=
EXTT6=
EXTT7=
EXTT8=
EXTT9=
EXTT10=
EXTT11=
EXTT12=
EXTT13=
EXTT14=
EXTT15=
PLAYORDER=
